<?xml version="1.0" standalone="no"?>
<!DOCTYPE svg PUBLIC "-//W3C//DTD SVG 20010904//EN"
 "http://www.w3.org/TR/2001/REC-SVG-20010904/DTD/svg10.dtd">
<svg version="1.0" xmlns="http://www.w3.org/2000/svg"
 width="260.000000pt" height="260.000000pt" viewBox="0 0 260.000000 260.000000"
 preserveAspectRatio="xMidYMid meet">
<metadata>
Created by potrace 1.11, written by Peter Selinger 2001-2013
</metadata>
<g transform="translate(0.000000,260.000000) scale(0.100000,-0.100000)"
fill="#000000" stroke="none">
<path d="M1595 2259 c-366 -579 -419 -653 -590 -824 -300 -299 -633 -456 -750
-354 -40 36 -57 87 -56 169 4 287 362 742 583 742 44 0 56 -4 75 -26 26 -30
30 -85 12 -149 -6 -22 -8 -41 -5 -44 12 -12 121 31 147 58 50 53 27 138 -48
175 -52 26 -205 26 -283 0 -319 -108 -636 -470 -653 -746 -8 -118 21 -179 107
-227 47 -26 58 -28 156 -27 79 1 121 7 169 23 155 52 365 190 538 354 l91 87
-101 -152 c-135 -207 -306 -469 -462 -713 -17 -27 -52 -81 -77 -120 -48 -76
-162 -258 -181 -290 -7 -11 -25 -39 -40 -62 l-28 -43 90 0 89 0 153 253 c155
256 315 507 444 697 39 58 131 193 205 300 158 232 239 338 340 444 128 135
227 196 307 192 70 -4 95 -42 98 -151 3 -115 -72 -312 -171 -451 -43 -61 -44
-62 -101 -69 -165 -19 -212 -29 -315 -62 -100 -32 -173 -101 -164 -154 11 -66
42 -84 141 -84 112 1 215 55 420 220 88 71 120 87 210 101 98 15 225 69 347
150 69 45 308 274 308 294 0 25 -30 4 -85 -58 -122 -137 -254 -237 -395 -298
-78 -34 -224 -78 -240 -72 -5 2 11 26 36 53 125 139 186 286 180 433 -3 77
-22 121 -68 155 -82 61 -195 61 -317 1 -57 -28 -97 -59 -172 -133 -53 -53
-117 -122 -143 -154 -25 -32 -46 -55 -46 -52 0 10 181 277 330 485 149 209
290 415 290 425 0 3 -42 5 -92 5 l-93 -1 -190 -300z m33 -1043 c-120 -115
-220 -177 -289 -180 -64 -2 -93 24 -86 77 6 45 32 69 107 98 55 21 210 52 285
57 l39 3 -56 -55z"/>
</g>
</svg>
